<?xml version="1.0" encoding="UTF-8"?>
<svg id="Layer_1" data-name="Layer 1" xmlns="http://www.w3.org/2000/svg" version="1.1" viewBox="0 0 1280 290">
  <defs>
    <style>
      .cls-1 {
        fill: #c33cd2;
      }

      .cls-1, .cls-2, .cls-3 {
        stroke-width: 0px;
      }

      .cls-2 {
        fill: #3cbecd;
      }

      .cls-3 {
        fill: #fff;
      }
    </style>
  </defs>
  <path class="cls-2" d="M136.4,170c-2.7,0-5.4-.7-7.9-2.1-7.6-4.4-10.1-14-5.8-21.6L202.5,8.3c4.4-7.6,14-10.1,21.6-5.8,7.6,4.4,10.1,14,5.8,21.6l-79.7,138.1c-2.9,5.1-8.2,7.9-13.7,7.9Z"/>
  <path class="cls-1" d="M136.7,289.6c-8.3,0-16.7-.8-25-2.3-35.6-6.6-66.4-26.7-86.9-56.5S-3.3,165,3.3,129.5C16.2,60.3,78.6,13,148.6,19.4c8.7.8,15.1,8.5,14.3,17.2-.8,8.7-8.5,15.1-17.2,14.3-53.6-5-101.5,31.4-111.4,84.4-5.1,27.3.8,54.9,16.5,77.7,15.7,22.9,39.4,38.2,66.6,43.3,27.3,5.1,54.9-.8,77.7-16.5,22.9-15.7,38.2-39.4,43.3-66.6,5.1-27.3-1.2-56-17.2-78.7-5-7.1-3.3-17,3.8-22,7.1-5,17-3.3,22,3.8,20.9,29.6,29,67.1,22.4,102.7-6.6,35.6-26.7,66.4-56.5,86.9-22.8,15.7-49.3,23.8-76.3,23.8Z"/>
  <g>
    <path class="cls-3" d="M419.4,76.5c44.4,0,79.9,34.3,79.9,79s-35.5,78.4-79.9,78.4-79.9-34.3-79.9-78.4,35.5-79,79.9-79ZM419.4,196.9c23.2,0,39.8-18.5,39.8-41.7s-16.7-41.7-39.8-41.7-39.8,18.5-39.8,41.7,17,41.7,39.8,41.7Z"/>
    <path class="cls-3" d="M628.3,151.8c0-23.5-13-38.6-36.1-38.6s-37.3,15.4-37.3,38.6v71.9c0,3.4-3.1,5.9-6.5,5.9h-27.2c-3.4,0-6.2-2.8-6.2-6.2V87.3c0-3.7,2.8-6.5,6.2-6.5h27.2c3.4,0,6.5,2.5,6.5,5.9v11.7c8.6-12,25.6-21.9,49.4-21.9,39.5,0,63.9,27.8,63.9,64.5v82.7c0,3.4-3.1,5.9-6.5,5.9h-26.9c-3.4,0-6.5-2.5-6.5-5.9v-71.9Z"/>
    <path class="cls-3" d="M837,150.9v7.4c0,3.7-1.2,6.8-7.1,6.8h-106.2c2.2,21,18.8,34.9,38.9,34.9s25.9-5.6,34.9-15.7c2.2-2.5,4.6-4,8-1.5l19.4,13.6c3.4,2.5,3.4,6.5,1.2,9-12.3,15.7-31.5,28.7-64.5,28.7s-79-34-79-78.1,32.7-79.3,78.4-79.3,75.9,34.9,75.9,74.4ZM797.8,139.8c-3.7-20.7-19.1-31.2-36.4-31.2s-32.7,12.3-36.7,31.2h73.2Z"/>
    <path class="cls-3" d="M931.3,76.9c27.7,0,50.6,15.3,60.7,36.5v-27.7c0-2.6,2.3-4.9,4.9-4.9h4.6c2.6,0,4.9,2.3,4.9,4.9v139c0,2.6-2.3,4.9-4.9,4.9h-4.6c-2.6,0-4.9-2.3-4.9-4.9v-27.7c-10.4,21.2-33,36.5-60.7,36.5-41.8,0-75-32.6-75-78s33.3-78.6,75-78.6ZM931.6,220.5c35.6,0,60.7-28.4,60.7-64.9s-25.1-65.6-60.7-65.6-60.7,28.7-60.7,65.6,25.1,64.9,60.7,64.9Z"/>
    <path class="cls-3" d="M1049.4,224.7c0,2.6-2.3,4.9-4.9,4.9h-4.6c-2.6,0-4.9-2.3-4.9-4.9V85.7c0-2.6,2.3-4.9,4.9-4.9h4.6c2.6,0,4.9,2.3,4.9,4.9v24.5c8.8-19.9,28.7-33.3,54.8-33.3s47.6,15.3,55.1,37.8c10.8-25.1,31.6-37.8,59-37.8s60.7,25.4,60.7,64.6v83.2c0,2.6-2.3,4.9-4.9,4.9h-4.6c-2.6,0-4.9-2.3-4.9-4.9v-80.6c0-32.3-16-54.5-48.6-54.5s-51.9,22.2-51.9,54.5v80.6c0,2.6-2.3,4.9-4.9,4.9h-4.6c-2.6,0-4.9-2.3-4.9-4.9v-80.6c0-32.3-16-54.5-48.6-54.5s-51.9,22.2-51.9,54.5v80.6Z"/>
  </g>
</svg>