<?xml version="1.0" encoding="UTF-8"?>
<svg id="Layer_1" data-name="Layer 1" xmlns="http://www.w3.org/2000/svg" version="1.1" viewBox="0 0 290 290">
  <defs>
    <style>
      .cls-1 {
        fill: #c33cd2;
      }

      .cls-1, .cls-2 {
        stroke-width: 0px;
      }

      .cls-2 {
        fill: #3cbecd;
      }
    </style>
  </defs>
  <path class="cls-2" d="M145,169.8c-2.6,0-5.3-.7-7.8-2.1-7.5-4.3-10-13.9-5.7-21.3L210.4,9.7c4.3-7.5,13.9-10,21.3-5.7,7.5,4.3,10,13.9,5.7,21.3l-78.9,136.7c-2.9,5-8.1,7.8-13.5,7.8Z"/>
  <path class="cls-1" d="M145.3,288.2c-8.2,0-16.5-.8-24.8-2.3-35.2-6.5-65.7-26.4-86-55.9-20.3-29.5-27.8-65.1-21.3-100.3C26,61.2,87.8,14.4,157.1,20.7c8.6.8,14.9,8.4,14.1,17-.8,8.6-8.4,14.9-17,14.1-53.1-4.9-100.5,31.1-110.2,83.6-5,27,.8,54.3,16.3,76.9,15.5,22.6,38.9,37.9,65.9,42.9,27,5,54.3-.8,76.9-16.3,22.6-15.5,37.8-38.9,42.9-65.9,5-27-1.2-55.4-17-77.9-5-7.1-3.3-16.8,3.8-21.8,7.1-5,16.8-3.3,21.8,3.8,20.7,29.3,28.7,66.4,22.2,101.6-6.5,35.2-26.4,65.7-55.9,86-22.6,15.5-48.7,23.6-75.6,23.6Z"/>
</svg>